<svg version="1.1" id="Layer_1" xmlns="http://www.w3.org/2000/svg" xmlns:xlink="http://www.w3.org/1999/xlink" x="0px" y="0px"
	 width="100%" viewBox="0 0 1024 1024" enable-background="new 0 0 1024 1024" xml:space="preserve">
<path fill="#000000" opacity="1.000000" stroke="none" 
	d="
M532.177368,487.644287 
	C547.789795,488.085663 560.340149,481.612244 571.927673,472.714996 
	C579.231445,467.106934 579.442444,467.017914 584.788147,474.216248 
	C591.670288,483.483459 599.059814,492.171631 608.878357,498.587006 
	C613.368530,501.520905 613.428711,504.876801 609.276306,508.867889 
	C595.678406,521.937683 579.498779,530.698975 561.556213,536.047546 
	C543.939819,541.298889 525.867310,544.308777 507.426331,543.264038 
	C478.493134,541.624817 451.328857,534.398010 427.901001,516.330139 
	C427.109741,515.719910 426.313721,515.111877 425.562592,514.454041 
	C420.002350,509.584198 420.052002,506.585754 425.996155,502.153717 
	C436.264252,494.497772 444.016388,484.962616 448.415375,472.835480 
	C453.552460,458.673645 451.773102,444.731018 447.237610,430.825317 
	C443.058044,418.010834 438.802063,405.179077 439.689117,391.401489 
	C440.327087,381.492462 442.513489,371.995392 447.904968,363.476349 
	C450.082550,360.035583 452.827301,357.171478 456.758575,355.715546 
	C465.365326,352.528076 474.238373,359.680878 472.617004,368.765961 
	C471.072968,377.417725 468.608459,385.875641 469.252625,394.856384 
	C471.399902,424.793701 482.399902,451.020050 502.440033,473.251312 
	C510.101562,481.750488 519.900146,487.035553 532.177368,487.644287 
z"/>
<path fill="#000000" opacity="1.000000" stroke="none" 
	d="
M578.312500,380.325409 
	C588.028259,367.254181 596.128906,353.900085 598.842468,337.734589 
	C601.324036,322.951111 596.231384,310.936554 586.776245,300.249664 
	C579.701599,292.253448 570.768311,286.792450 561.151917,282.345367 
	C555.928101,279.929626 555.354980,278.132812 558.173950,273.017761 
	C564.100220,262.264618 567.983215,250.859726 569.673828,238.681076 
	C570.471375,232.935928 574.271484,230.686218 579.656677,232.909851 
	C602.658447,242.407608 621.456787,257.527618 636.990295,276.750732 
	C657.481079,302.108459 669.539551,331.136261 673.095337,363.507629 
	C673.924805,371.058502 674.716125,378.760651 673.958252,386.432861 
	C673.298096,393.116180 669.655701,395.451447 663.774597,392.448730 
	C637.986389,379.282074 608.374451,387.937012 590.726440,408.842804 
	C582.441223,418.657501 574.033936,428.357605 562.972778,435.257751 
	C552.964783,441.500885 542.012878,444.452332 530.261719,444.296692 
	C523.091492,444.201721 517.959351,440.359955 516.816589,434.636658 
	C515.635376,428.720215 518.661133,423.177856 525.591431,420.714203 
	C547.440491,412.947144 563.832214,398.214020 578.312500,380.325409 
z"/>
<path fill="#000000" opacity="1.000000" stroke="none" 
	d="
M394.972900,270.997467 
	C407.500244,257.120972 421.645874,245.924881 438.153992,237.812256 
	C439.498138,237.151703 440.848450,236.491531 442.239014,235.939835 
	C447.550629,233.832489 450.018372,235.482178 450.331757,241.275986 
	C451.242065,258.106903 458.127960,272.043762 470.839264,283.046783 
	C480.025024,290.998047 491.107727,294.929840 502.732056,297.662292 
	C515.051636,300.558167 527.361572,303.540100 538.160522,310.594757 
	C548.593384,317.410339 557.060913,325.822021 560.522095,338.299927 
	C562.008911,343.659790 560.913635,348.496643 556.991516,351.299011 
	C552.804077,354.290985 548.296082,354.250549 543.838440,351.792999 
	C542.390930,350.994965 540.865295,350.154144 539.741272,348.982056 
	C526.546143,335.223083 509.290771,329.698730 491.513245,325.582855 
	C478.851624,322.651459 465.875641,321.765381 452.865631,322.435242 
	C441.424744,323.024292 430.347931,325.176605 420.884888,332.166016 
	C408.832886,341.067627 404.280518,353.808929 403.408234,368.150055 
	C403.055023,373.957397 403.306641,379.806152 403.397614,385.634247 
	C403.453522,389.219208 402.147522,391.238434 398.277863,391.485901 
	C385.774750,392.285522 373.580841,394.231750 362.125488,399.904785 
	C357.303406,402.292847 354.059418,399.512573 353.673981,393.711273 
	C350.588501,347.268646 364.612823,306.563599 394.972900,270.997467 
z"/>
<path fill="#000000" opacity="1.000000" stroke="none" 
	d="
M877.348633,697.000244 
	C877.346130,708.493896 877.229004,719.489319 877.400085,730.480347 
	C877.463684,734.568237 875.868042,736.280945 871.844482,736.192566 
	C866.683228,736.079163 861.511108,735.994202 856.356079,736.203796 
	C851.968445,736.382141 850.555115,734.485840 850.592712,730.244324 
	C850.741638,713.421997 850.669312,696.597412 850.626465,679.773865 
	C850.621033,677.623657 850.484985,675.441956 850.103638,673.330078 
	C848.601929,665.013794 844.965149,661.006653 838.545837,660.367249 
	C830.199341,659.535950 823.455383,663.320251 820.557556,670.784302 
	C818.989136,674.824341 818.316895,679.100281 818.327454,683.480408 
	C818.364380,698.804871 818.353943,714.129456 818.329346,729.454041 
	C818.319580,735.544922 817.755798,736.121216 811.860413,736.167847 
	C807.030273,736.205994 802.199524,736.151062 797.369019,736.154358 
	C793.528198,736.156982 791.613953,734.531860 791.626282,730.415710 
	C791.711243,701.932312 791.731812,673.448364 791.624878,644.965149 
	C791.609009,640.732910 793.358582,639.399048 797.333130,639.572937 
	C802.154419,639.783752 806.999634,639.789124 811.820251,639.569397 
	C815.911987,639.382812 818.783508,640.156250 818.471558,645.106812 
	C818.437012,645.654663 819.006653,646.240540 819.617371,647.439697 
	C827.534058,639.660400 836.946716,636.912903 847.549133,637.641724 
	C858.174316,638.372070 866.722290,642.685974 872.552795,652.491211 
	C874.115051,650.742493 875.241394,649.551636 876.290833,648.296448 
	C888.300110,633.932434 910.479614,635.644043 922.144653,642.692627 
	C931.850708,648.557617 934.955261,658.350525 935.188782,668.778320 
	C935.651123,689.422913 935.275635,710.085266 935.395447,730.739380 
	C935.417664,734.576904 934.011597,736.254700 930.166138,736.161682 
	C925.338501,736.044861 920.500549,735.993591 915.677002,736.176514 
	C911.080200,736.350769 909.573303,734.235046 909.606934,729.829529 
	C909.739014,712.507141 909.710999,695.182861 909.625610,677.859863 
	C909.573242,667.239746 904.937683,661.269348 896.362549,660.388733 
	C885.209900,659.243530 877.898926,666.325806 877.405884,679.011353 
	C877.179565,684.832947 877.355103,690.670227 877.348633,697.000244 
z"/>
<path fill="#000000" opacity="1.000000" stroke="none" 
	d="
M124.008453,735.304199 
	C114.209763,732.489746 105.683960,728.156860 98.280930,721.663330 
	C95.118988,718.889893 94.208115,716.394897 97.564079,712.930542 
	C101.260590,709.114563 104.584206,704.919495 107.883102,700.741821 
	C110.546913,697.368408 112.843735,697.453979 115.424477,700.778076 
	C123.946808,711.755005 135.582916,714.783203 148.786316,713.624451 
	C153.970398,713.169373 158.377563,711.021729 161.906113,707.163147 
	C167.193878,701.380737 166.294037,693.045410 159.854187,688.486145 
	C152.929642,683.583679 144.691177,682.880493 136.715485,681.367676 
	C127.623924,679.643188 118.989868,676.839294 111.669365,670.894165 
	C100.648796,661.944214 96.976334,649.985168 98.947350,636.506348 
	C101.082794,621.903076 109.850243,611.841309 123.744644,607.195618 
	C144.947983,600.106201 164.694962,603.513550 182.607895,617.136475 
	C186.162262,619.839539 186.750992,622.285950 183.538956,625.679260 
	C180.682816,628.696594 178.089905,631.978760 175.546860,635.272278 
	C173.196442,638.316345 170.944077,639.133179 167.700195,636.316528 
	C159.798523,629.455566 150.342743,627.628723 140.181442,628.343811 
	C130.803574,629.003784 124.801018,634.877747 125.295822,642.947388 
	C125.628593,648.374451 129.436798,651.132385 133.609451,653.334412 
	C140.143677,656.782715 147.365616,658.194275 154.534164,659.668030 
	C161.587799,661.118164 168.393402,663.306946 174.594513,667.005676 
	C196.398178,680.010681 198.119141,710.613770 177.845139,726.586182 
	C161.720490,739.289734 143.553268,740.521362 124.008453,735.304199 
z"/>
<path fill="#000000" opacity="1.000000" stroke="none" 
	d="
M197.324738,643.313843 
	C196.593414,639.852844 198.723816,639.676880 200.814728,639.662048 
	C207.313934,639.616211 213.815201,639.732910 220.312561,639.614746 
	C223.473419,639.557251 224.643204,641.454468 225.568497,643.971680 
	C232.282745,662.237732 240.745514,679.837952 246.341812,698.532104 
	C246.756760,699.918213 247.446976,701.221863 248.201691,703.023254 
	C251.908615,697.867004 252.624252,692.143372 254.520142,686.927551 
	C259.578247,673.012085 264.414642,659.014099 269.155640,644.986816 
	C270.455292,641.141479 272.393005,639.245117 276.726379,639.543823 
	C282.034332,639.909729 287.386993,639.591248 292.719421,639.649231 
	C298.357971,639.710510 298.839233,640.472046 296.740417,645.864197 
	C290.401764,662.149536 284.041687,678.426514 277.695221,694.708801 
	C270.624390,712.849548 263.730499,731.061829 256.422577,749.106567 
	C252.533798,758.708679 246.614639,766.893555 237.072632,771.837585 
	C227.623077,776.733643 217.659760,777.146057 207.388138,775.429321 
	C204.640091,774.970093 203.634888,773.430359 203.778564,770.985229 
	C204.070938,766.008911 204.416977,761.030273 204.957199,756.076111 
	C205.287003,753.051880 207.204178,752.526611 210.032547,753.146179 
	C219.623138,755.246826 226.974365,751.798401 232.319962,743.713318 
	C235.007553,739.648376 235.319550,735.614075 233.377319,730.971069 
	C221.557327,702.714966 209.929321,674.378601 198.247391,646.064819 
	C197.931152,645.298340 197.729675,644.484497 197.324738,643.313843 
z"/>
<path fill="#000000" opacity="1.000000" stroke="none" 
	d="
M739.095093,749.949524 
	C732.685669,764.034363 722.921143,773.414612 707.453857,775.836182 
	C701.776611,776.725098 696.182556,776.305237 690.572144,775.348572 
	C688.555115,775.004639 687.775024,773.834473 687.662292,771.933472 
	C687.325073,766.248230 687.941223,760.619812 688.849121,755.036316 
	C689.313965,752.176880 691.579346,752.807434 693.606689,753.128967 
	C704.855530,754.912476 712.520020,750.851929 717.130920,740.832153 
	C718.376892,738.124634 718.641174,735.601440 717.458313,732.721436 
	C705.889465,704.553162 694.414978,676.346191 682.914917,648.149719 
	C682.348938,646.762268 681.751343,645.385620 681.243958,643.976746 
	C680.285522,641.315063 681.088684,639.702026 684.078674,639.685059 
	C690.908875,639.646362 697.739929,639.717224 704.569580,639.648193 
	C707.528625,639.618286 708.499695,641.547607 709.371765,643.855591 
	C716.188110,661.896301 724.278809,679.455200 729.790344,697.991089 
	C730.400269,700.042419 731.348633,701.993103 732.306274,704.410034 
	C737.527344,689.525208 742.603760,675.024963 747.701904,660.532410 
	C749.634460,655.038635 751.714294,649.594482 753.538696,644.065491 
	C754.566101,640.952026 756.287109,639.452820 759.721924,639.575623 
	C765.379272,639.777588 771.051636,639.738647 776.712708,639.598816 
	C781.084412,639.490784 781.944580,641.266479 780.410461,645.122131 
	C774.381775,660.274353 768.588318,675.521362 762.451111,690.628967 
	C754.498962,710.204529 747.886719,730.304749 739.095093,749.949524 
z"/>
<path fill="#000000" opacity="1.000000" stroke="none" 
	d="
M365.048157,663.899414 
	C358.219482,659.218933 351.334991,658.977112 344.479065,662.604065 
	C337.907684,666.080505 335.477600,672.256531 335.405945,679.269775 
	C335.235687,695.930237 335.360596,712.593567 335.329376,729.255676 
	C335.318115,735.259827 334.457611,736.102112 328.334564,736.167908 
	C323.503204,736.219849 318.668823,736.075378 313.839233,736.178589 
	C309.936676,736.261963 307.886017,734.645142 307.889862,730.618530 
	C307.916718,702.460205 307.917603,674.301941 307.947571,646.143616 
	C307.952423,641.578491 309.708618,638.965210 314.877991,639.559326 
	C318.002472,639.918396 321.202728,639.581604 324.367676,639.634094 
	C329.302826,639.715942 335.315247,637.837585 335.403625,645.555420 
	C336.958527,646.253906 337.693970,645.802368 338.330536,645.275940 
	C350.339355,635.343872 363.866058,635.899109 377.553192,640.209290 
	C389.695190,644.032959 394.885284,653.896118 396.193939,665.655457 
	C398.612183,687.386108 396.900360,709.241394 397.333527,731.037903 
	C397.405365,734.652527 395.594177,736.184509 392.132965,736.167786 
	C387.467712,736.145325 382.802063,736.185669 378.136871,736.157471 
	C371.652924,736.118225 370.859528,735.417542 370.820801,729.050110 
	C370.747864,717.053833 370.792847,705.056763 370.775818,693.060059 
	C370.768250,687.728455 370.660706,682.396057 370.723938,677.065491 
	C370.784637,671.946777 369.123871,667.613831 365.048157,663.899414 
z"/>
<path fill="#000000" opacity="1.000000" stroke="none" 
	d="
M495.313507,712.772949 
	C500.314606,718.352600 500.414825,718.778137 495.158691,723.861877 
	C479.570526,738.938538 461.118164,742.174988 441.211517,735.088135 
	C422.227203,728.329590 413.571320,713.273254 411.607635,693.827148 
	C410.040436,678.307739 412.854889,663.958984 423.402008,651.953430 
	C431.369934,642.883667 441.801270,638.440552 453.734283,637.694824 
	C463.971252,637.055054 473.988098,637.804504 483.114258,643.378052 
	C493.897919,649.963928 498.567963,660.307373 501.341217,671.963074 
	C502.552948,677.055969 502.150024,682.209839 502.392792,687.347656 
	C502.598297,691.696472 500.683350,693.351929 496.499512,693.319336 
	C485.511108,693.233704 474.521545,693.296936 463.532440,693.301147 
	C456.539368,693.303833 449.546082,693.277710 442.553253,693.319519 
	C437.197784,693.351501 436.540253,694.270264 437.846893,699.610046 
	C441.766205,715.627136 456.254791,722.329346 471.058289,714.967590 
	C475.436188,712.790466 479.412994,710.000549 482.322327,706.067444 
	C484.451324,703.189209 486.232513,703.593689 488.376434,705.778625 
	C490.591461,708.036011 492.841522,710.259033 495.313507,712.772949 
M441.882782,665.396057 
	C439.794067,668.302185 437.589050,671.164307 437.948761,675.217529 
	C451.048035,675.217529 463.879822,675.217529 476.706085,675.217529 
	C476.680603,667.637207 473.332031,662.209290 467.159943,659.308838 
	C458.594604,655.283691 449.486481,657.310547 441.882782,665.396057 
z"/>
<path fill="#000000" opacity="1.000000" stroke="none" 
	d="
M587.448486,661.597168 
	C598.638184,643.079590 618.247559,634.173462 639.191833,637.862000 
	C658.920288,641.336487 673.983643,655.956482 677.858643,676.649048 
	C682.862549,703.369446 669.735779,730.542664 641.386353,737.029541 
	C611.465637,743.875977 585.101379,724.809753 581.501770,694.199829 
	C580.154236,682.741516 581.988098,672.080383 587.448486,661.597168 
M607.671814,695.684509 
	C608.370667,698.076782 608.815979,700.581055 609.814758,702.840698 
	C613.105225,710.284546 618.366943,715.683167 626.802612,716.581238 
	C636.441528,717.607361 644.084534,713.990051 648.937012,705.356384 
	C653.864441,696.589050 653.637634,687.000305 652.109131,677.626587 
	C650.258728,666.279419 642.051575,658.892090 632.244202,658.371216 
	C621.312927,657.790710 613.025391,663.807861 609.012085,675.066345 
	C606.703979,681.541321 607.321716,688.192627 607.671814,695.684509 
z"/>
<path fill="#000000" opacity="1.000000" stroke="none" 
	d="
M535.517639,270.531555 
	C522.630737,282.554352 503.285217,285.040466 487.993042,276.856812 
	C472.853851,268.755005 463.201111,250.105286 465.971741,234.310242 
	C469.357147,215.010284 482.247437,202.114380 499.945190,198.449280 
	C522.835632,193.708817 549.470093,211.444107 549.166016,239.566132 
	C549.037354,251.469833 544.506836,261.903778 535.517639,270.531555 
z"/>
<path fill="#000000" opacity="1.000000" stroke="none" 
	d="
M613.461121,408.335022 
	C627.743958,398.984406 642.397034,397.514771 657.105652,405.728516 
	C671.609070,413.827545 678.205261,427.123199 678.191589,443.395081 
	C678.175293,462.766937 664.929260,479.060303 646.314453,483.682861 
	C628.497498,488.107239 610.439819,480.186646 601.358093,463.963623 
	C590.862549,445.215149 595.650024,422.768280 613.461121,408.335022 
z"/>
<path fill="#000000" opacity="1.000000" stroke="none" 
	d="
M402.480560,410.829132 
	C421.017792,414.738708 432.637787,425.589020 436.531219,443.638489 
	C441.879730,468.433563 426.294128,490.106598 402.703369,494.377716 
	C383.301117,497.890564 367.897858,486.550598 360.614868,472.557953 
	C352.520355,457.006073 355.103210,436.516754 366.572388,424.116180 
	C376.222870,413.682037 388.024811,409.392303 402.480560,410.829132 
z"/>
<path fill="#000000" opacity="1.000000" stroke="none" 
	d="
M517.649353,698.999878 
	C517.650208,680.842468 517.786255,663.183350 517.561890,645.528809 
	C517.502319,640.841614 519.177734,639.291565 523.668335,639.565247 
	C528.149170,639.838379 532.679810,639.884399 537.152222,639.547485 
	C541.934204,639.187317 543.999512,640.928833 543.400818,645.755676 
	C543.285828,646.682861 543.152344,647.779175 544.155334,648.573730 
	C545.885010,648.595459 546.615173,647.139771 547.495422,646.038696 
	C554.538391,637.229126 563.961487,636.243835 574.134094,638.002625 
	C577.563965,638.595581 579.277588,640.653259 578.543823,644.459717 
	C577.696899,648.853821 576.783325,653.292847 576.595642,657.741760 
	C576.360168,663.323364 573.487915,663.792786 568.962219,663.010681 
	C558.331238,661.173462 548.859741,667.028198 545.872498,677.330933 
	C544.817383,680.969727 544.279907,684.771240 544.303589,688.646484 
	C544.387146,702.305481 544.346863,715.965393 544.313904,729.624817 
	C544.299744,735.497253 543.653137,736.119080 537.641174,736.170898 
	C532.810791,736.212524 527.976501,736.057556 523.149902,736.196289 
	C519.065552,736.313660 517.541260,734.526062 517.602905,730.482971 
	C517.760498,720.157471 517.651794,709.827881 517.649353,698.999878 
z"/>
</svg>